<?xml version="1.0" standalone="no"?>
<!DOCTYPE svg PUBLIC "-//W3C//DTD SVG 20010904//EN"
 "http://www.w3.org/TR/2001/REC-SVG-20010904/DTD/svg10.dtd">
<svg version="1.0" xmlns="http://www.w3.org/2000/svg"
 width="339.000000pt" height="330.000000pt" viewBox="0 0 339.000000 330.000000"
 preserveAspectRatio="xMidYMid meet">

<g transform="translate(0.000000,330.000000) scale(0.100000,-0.100000)"
fill="#000000" stroke="none">
<path d="M1500 3289 c-633 -78 -1176 -494 -1391 -1064 -171 -453 -133 -955
103 -1368 441 -773 1414 -1074 2226 -687 474 226 814 657 916 1160 75 370 19
740 -164 1088 -229 435 -679 760 -1182 852 -130 24 -390 34 -508 19z m-37
-369 c14 -11 33 -42 43 -68 9 -26 21 -51 26 -57 5 -5 25 10 51 38 46 53 85 68
135 55 59 -16 73 -82 46 -216 -9 -43 7 -42 63 4 50 41 95 57 138 48 84 -17
100 -98 40 -198 -19 -32 -35 -62 -35 -67 0 -13 22 -11 71 7 26 9 57 13 77 9
46 -9 102 -60 102 -95 0 -29 -38 -87 -88 -134 -32 -30 -33 -46 -5 -46 33 0
104 -43 118 -71 34 -65 2 -122 -86 -153 -30 -10 -58 -22 -62 -26 -5 -4 12 -19
37 -34 76 -45 100 -127 53 -182 -22 -25 -31 -28 -113 -32 -49 -2 -92 -7 -97
-11 -4 -4 6 -24 22 -45 56 -71 63 -136 19 -183 -32 -34 -97 -31 -165 7 -45 26
-93 39 -93 26 0 -2 7 -23 15 -46 22 -61 19 -111 -8 -151 -42 -63 -128 -48
-184 31 -35 49 -55 48 -65 -6 -19 -94 -119 -138 -175 -76 -14 15 -33 47 -42
72 -9 25 -21 45 -28 45 -6 0 -29 -24 -52 -52 -23 -29 -52 -55 -66 -59 -32 -8
-96 24 -113 56 -13 24 -11 116 4 183 9 37 -9 35 -59 -8 -72 -62 -156 -69 -198
-17 -29 38 -22 104 19 171 40 64 41 76 5 65 -16 -5 -61 -9 -102 -8 -70 1 -76
3 -103 33 -15 17 -28 40 -28 51 0 11 29 52 65 92 36 39 65 75 65 80 0 4 -10 8
-22 8 -12 0 -41 9 -64 20 -42 21 -74 67 -74 107 0 43 49 82 133 107 22 6 42
16 44 21 2 6 -18 20 -44 32 -55 25 -83 65 -83 116 0 75 66 113 175 102 72 -8
85 4 44 41 -33 29 -49 69 -49 117 0 99 80 127 187 67 54 -30 83 -38 83 -20 0
5 -5 32 -11 61 -14 65 0 119 39 149 42 34 85 22 149 -42 32 -31 56 -48 61 -43
5 6 14 29 20 52 24 81 107 118 165 73z m1313 -1328 c6 -4 28 -33 48 -65 43
-67 57 -75 91 -53 34 23 54 20 67 -9 6 -14 9 -27 7 -29 -26 -24 -134 -84 -144
-80 -15 6 -135 184 -135 201 0 11 38 43 50 43 3 0 10 -4 16 -8z m-81 -114 c31
-24 64 -90 65 -129 0 -62 -80 -129 -154 -129 -79 0 -154 117 -122 193 13 32
51 66 86 80 37 14 98 6 125 -15z m-287 -110 c23 -23 13 -45 -28 -61 -24 -9
-40 -22 -40 -32 0 -14 8 -15 56 -9 49 6 58 4 80 -17 33 -31 33 -82 -1 -113
-38 -35 -112 -61 -130 -46 -26 21 -17 39 30 62 59 29 52 44 -18 40 -50 -3 -60
0 -82 22 -46 46 -27 108 43 146 43 22 73 25 90 8z m493 -88 c30 -16 23 -46
-16 -69 -40 -23 -49 -57 -12 -48 66 17 79 19 102 13 16 -4 32 -20 42 -40 15
-32 15 -36 -3 -67 -25 -42 -106 -88 -131 -73 -29 18 -26 32 17 59 41 26 49 53
14 47 -100 -15 -102 -15 -128 11 -45 45 -26 108 46 151 50 30 44 29 69 16z
m-693 -28 c3 -18 -5 -26 -43 -42 -49 -21 -57 -48 -14 -42 69 9 94 7 97 -10 2
-11 -11 -23 -42 -37 -70 -30 -59 -62 12 -37 33 12 43 12 58 2 10 -8 15 -20 11
-29 -8 -21 -158 -78 -174 -66 -20 17 -96 220 -87 229 18 18 129 60 154 57 17
-1 26 -9 28 -25z m-196 -167 c20 -60 37 -115 37 -122 1 -7 -17 -18 -39 -24
l-41 -12 -49 48 c-27 27 -52 46 -55 43 -4 -3 0 -29 9 -57 15 -50 15 -51 -8
-66 -13 -9 -30 -13 -38 -10 -8 3 -31 56 -51 118 -40 125 -38 133 25 143 32 6
39 2 76 -37 22 -24 43 -41 47 -38 3 4 0 28 -7 54 -12 43 -11 48 7 61 37 27 49
13 87 -101z m725 27 c50 -40 77 -124 57 -177 -9 -21 -117 -94 -146 -98 -19 -2
-33 15 -85 102 -35 57 -60 108 -57 112 3 5 36 25 72 44 74 38 126 44 159 17z
m-1032 -32 c28 -31 25 -87 -5 -111 l-25 -18 45 -40 c37 -33 42 -42 30 -51 -25
-16 -76 -11 -103 10 -36 28 -47 25 -45 -12 3 -31 1 -33 -34 -36 -28 -2 -38 1
-42 15 -10 34 -46 203 -46 217 0 10 22 20 63 29 92 22 140 21 162 -3z m-256
-128 c10 -62 11 -102 5 -120 -12 -36 -67 -62 -130 -62 -72 0 -88 18 -108 127
-9 48 -16 96 -16 105 0 19 56 36 71 21 5 -5 16 -47 24 -93 17 -96 31 -114 69
-87 16 12 16 18 2 101 -9 49 -13 93 -10 98 3 5 22 8 42 6 l37 -3 14 -93z
m-324 32 c32 -21 45 -57 45 -124 0 -52 -4 -64 -29 -92 -28 -31 -33 -33 -100
-33 -62 0 -74 3 -95 25 -56 56 -56 180 0 216 53 35 133 39 179 8z m1369 -6
c20 -28 20 -67 1 -95 -14 -21 -14 -23 7 -37 13 -8 35 -20 51 -27 36 -16 34
-27 -8 -45 -31 -12 -39 -12 -75 2 -23 9 -43 14 -46 12 -2 -3 0 -18 6 -33 8
-22 8 -30 -2 -37 -16 -10 -58 -22 -62 -17 -10 10 -106 210 -106 219 0 6 32 26
72 45 86 42 139 46 162 13z m-1620 -23 c9 -33 3 -41 -35 -49 l-31 -6 3 -85 c3
-94 -3 -108 -47 -103 -29 3 -29 3 -34 85 -5 88 -11 99 -50 105 -20 2 -25 9
-25 33 0 28 3 30 45 36 25 3 73 7 106 7 58 2 62 1 68 -23z m1356 -100 c48 -44
67 -143 36 -190 -41 -63 -146 -86 -198 -45 -54 42 -76 149 -42 199 39 56 159
77 204 36z m-274 -90 c8 -31 3 -37 -44 -50 -23 -7 -42 -21 -52 -37 -13 -25
-13 -29 6 -55 16 -21 29 -27 50 -25 88 8 89 8 92 -18 4 -36 -46 -64 -116 -65
-48 0 -57 3 -82 32 -52 57 -62 151 -21 197 23 27 70 45 118 46 37 0 43 -3 49
-25z m-251 -74 c0 -18 -9 -27 -44 -40 -54 -20 -50 -36 11 -36 83 0 90 -37 12
-56 -33 -9 -44 -16 -42 -28 2 -9 12 -15 23 -14 11 1 33 3 49 5 33 3 58 -24 40
-42 -18 -18 -165 -53 -176 -42 -13 13 -60 200 -56 226 2 16 16 25 63 38 83 23
120 20 120 -11z m-241 -52 c36 -28 36 -80 1 -111 l-25 -22 42 -43 c23 -23 39
-45 36 -48 -3 -3 -21 -8 -40 -11 -27 -5 -40 -1 -65 20 -41 34 -54 33 -51 -5 3
-27 -1 -33 -25 -42 -19 -6 -32 -6 -39 1 -14 14 -59 235 -50 244 10 10 121 36
158 37 18 1 43 -8 58 -20z"/>
<path d="M1380 2825 c-5 -14 -13 -84 -17 -156 l-6 -129 52 0 c37 0 53 4 58 15
8 22 -23 229 -39 262 -18 37 -36 40 -48 8z"/>
<path d="M1110 2778 c0 -13 6 -45 14 -73 12 -44 22 -74 58 -177 12 -32 30 -41
63 -28 23 9 25 15 25 68 0 64 -12 89 -92 185 -43 51 -68 60 -68 25z"/>
<path d="M1643 2773 c-34 -50 -84 -164 -89 -207 -7 -46 5 -64 46 -68 33 -4 59
52 76 162 18 112 17 140 0 140 -8 0 -23 -12 -33 -27z"/>
<path d="M1825 2561 c-50 -43 -103 -92 -118 -108 l-28 -30 35 -26 c19 -15 44
-27 54 -27 37 0 206 242 185 264 -17 16 -46 0 -128 -73z"/>
<path d="M850 2616 c0 -30 180 -236 207 -236 18 0 62 50 63 70 0 18 -56 67
-153 133 -67 46 -117 60 -117 33z"/>
<path d="M1343 2440 c-17 -4 -61 -20 -97 -35 -52 -22 -73 -39 -114 -89 -73
-90 -76 -99 -76 -212 -1 -98 0 -103 38 -177 45 -89 93 -137 173 -172 61 -28
116 -31 208 -14 114 21 162 57 242 179 36 54 36 57 37 160 1 92 -2 109 -22
140 -12 19 -22 42 -22 50 0 9 -31 44 -70 78 -99 89 -191 118 -297 92z m172
-102 c37 -14 113 -84 127 -118 18 -45 36 -173 28 -194 -5 -12 -11 -33 -14 -48
-6 -28 -109 -124 -163 -152 -66 -33 -183 -12 -264 48 -54 40 -78 99 -87 207
-4 59 -1 72 24 118 35 66 68 99 122 123 81 37 155 42 227 16z"/>
<path d="M1357 2256 c-57 -16 -89 -44 -117 -102 -23 -48 -21 -87 11 -161 13
-31 29 -48 61 -64 93 -48 129 -44 203 18 57 47 69 78 62 160 -10 126 -95 184
-220 149z m130 -52 c39 -24 56 -61 57 -121 0 -55 -1 -57 -49 -100 -55 -48 -87
-54 -149 -28 -41 17 -60 43 -76 102 -9 37 -8 48 9 80 25 51 49 71 97 81 44 11
79 6 111 -14z"/>
<path d="M2057 2374 c-15 -8 -62 -24 -105 -35 -104 -26 -130 -38 -138 -61 -10
-33 22 -58 76 -58 54 0 118 35 198 106 61 55 40 87 -31 48z"/>
<path d="M685 2370 c-10 -16 13 -38 62 -60 25 -11 61 -34 80 -50 31 -28 40
-31 91 -28 52 3 58 6 71 32 13 27 12 31 -9 48 -12 10 -30 18 -39 18 -10 0 -45
11 -79 25 -64 26 -165 34 -177 15z"/>
<path d="M765 2124 c-185 -37 -158 -75 63 -89 132 -8 142 -4 142 61 l0 44 -67
-1 c-38 -1 -99 -8 -138 -15z"/>
<path d="M1857 2123 c-3 -4 -7 -28 -8 -53 l-4 -45 45 -3 c97 -7 286 35 277 62
-2 6 -14 16 -28 22 -29 14 -275 29 -282 17z"/>
<path d="M851 1922 c-43 -16 -161 -114 -161 -133 0 -15 59 -10 91 7 17 8 62
22 101 30 38 8 81 22 94 30 26 17 32 52 12 72 -17 17 -85 14 -137 -6z"/>
<path d="M1817 1912 c-23 -26 -21 -38 11 -60 53 -38 143 -64 216 -64 114 1
110 12 -44 108 -45 28 -64 34 -111 34 -41 0 -60 -5 -72 -18z"/>
<path d="M1008 1763 c-59 -62 -148 -193 -148 -219 0 -36 32 -31 82 13 80 69
178 167 178 178 0 14 -52 65 -66 65 -5 0 -26 -17 -46 -37z"/>
<path d="M1713 1764 c-18 -14 -33 -31 -33 -39 0 -18 95 -103 171 -154 63 -42
109 -53 109 -26 0 17 -152 208 -183 230 -27 19 -26 19 -64 -11z"/>
<path d="M1185 1657 c-34 -52 -79 -287 -57 -301 13 -8 72 62 72 85 0 9 14 33
30 54 26 33 30 46 30 101 0 52 -3 65 -19 74 -29 15 -39 13 -56 -13z"/>
<path d="M1556 1664 c-37 -37 -5 -149 71 -251 56 -76 79 -83 69 -20 -3 23 -10
70 -15 104 -8 59 -42 132 -77 167 -19 20 -29 20 -48 0z"/>
<path d="M1350 1625 c-20 -24 16 -263 46 -301 13 -18 15 -18 27 -2 15 19 43
290 32 307 -10 16 -91 13 -105 -4z"/>
<path d="M2578 1409 c-22 -12 -23 -31 -3 -69 20 -39 49 -54 75 -40 29 15 27
70 -3 98 -25 24 -43 27 -69 11z"/>
<path d="M2625 1036 c-18 -13 -18 -15 9 -60 27 -46 51 -57 74 -34 19 19 14 66
-8 88 -23 23 -49 25 -75 6z"/>
<path d="M1573 1014 c-3 -8 1 -23 10 -31 14 -15 18 -15 41 0 16 11 23 23 20
32 -8 20 -63 20 -71 -1z"/>
<path d="M1011 914 c-20 -14 -22 -23 -18 -57 3 -22 11 -44 19 -48 19 -12 52
-11 66 3 19 19 14 76 -8 98 -24 24 -29 25 -59 4z"/>
<path d="M2365 910 c-7 -11 12 -50 24 -50 18 0 54 37 47 48 -9 14 -62 16 -71
2z"/>
<path d="M2110 782 c-26 -21 -23 -54 9 -93 16 -20 23 -22 47 -14 41 14 45 64
10 100 -30 30 -37 31 -66 7z"/>
<path d="M1344 575 c-9 -23 3 -45 24 -45 25 0 46 25 38 45 -7 19 -55 20 -62 0z"/>
</g>
</svg>
